/* XPM */
static char *alien_new[] = {
/* columns rows colors chars-per-pixel */
"32 32 224 2 ",
"   c #030B02",
".  c #051404",
"X  c #091D06",
"o  c #092406",
"O  c #0B2B07",
"+  c #0D2D08",
"@  c #0A3106",
"#  c #0E3E09",
"$  c #12390C",
"%  c #183011",
"&  c #323E28",
"*  c #094406",
"=  c #074D04",
"-  c #094906",
";  c #0D4609",
":  c #134A0C",
">  c #065403",
",  c #095405",
"<  c #065903",
"1  c #095C05",
"2  c #0E5709",
"3  c #13520D",
"4  c #135A0C",
"5  c #1A5B0F",
"6  c #1B4A12",
"7  c #1C5314",
"8  c #1D5C13",
"9  c #244B19",
"0  c #24531B",
"q  c #245719",
"w  c #265B1A",
"e  c #2A5D1B",
"r  c #0C6107",
"t  c #0E6308",
"y  c #11670B",
"u  c #1A6412",
"i  c #1C6E14",
"p  c #137E12",
"a  c #1C7915",
"s  c #216817",
"d  c #24641A",
"f  c #2A621D",
"g  c #27691B",
"h  c #257B19",
"j  c #304D26",
"k  c #2A5722",
"l  c #2D5922",
"z  c #335A27",
"x  c #345B2C",
"c  c #2C6221",
"v  c #326424",
"b  c #346B29",
"n  c #3A692A",
"m  c #397229",
"M  c #3E6632",
"N  c #3F7433",
"B  c #425832",
"V  c #435D3A",
"C  c #42792E",
"Z  c #426D32",
"A  c #476C3A",
"S  c #447333",
"D  c #467E30",
"F  c #4A733B",
"G  c #51753F",
"H  c #4F6545",
"J  c #57674D",
"K  c #4F7641",
"L  c #547543",
"P  c #597644",
"I  c #557A45",
"U  c #5D794C",
"Y  c #5D6B52",
"T  c #627B4F",
"R  c #626D59",
"E  c #637D50",
"W  c #67745C",
"Q  c #6B7D59",
"!  c #6D7564",
"~  c #727C64",
"^  c #24821A",
"/  c #2B8021",
"(  c #338C2C",
")  c #478433",
"_  c #4F9233",
"`  c #47953B",
"'  c #56A335",
"]  c #3E905F",
"[  c #368D63",
"{  c #368E63",
"}  c #368C64",
"|  c #5B8347",
" . c #5B9645",
".. c #5D9D4D",
"X. c #4C9657",
"o. c #41915E",
"O. c #44925C",
"+. c #499559",
"@. c #519755",
"#. c #63894A",
"$. c #689D4F",
"%. c #668451",
"&. c #6A8855",
"*. c #73875B",
"=. c #738A5D",
"-. c #6C9853",
";. c #73915C",
":. c #749B5B",
">. c #68A147",
",. c #6DB14E",
"<. c #66A457",
"1. c #6DAE56",
"2. c #75A55A",
"3. c #768464",
"4. c #798A67",
"5. c #779363",
"6. c #7C9466",
"7. c #7B8172",
"8. c #78A863",
"9. c #7EB665",
"0. c #7EAA70",
"q. c #839469",
"w. c #849D6D",
"e. c #838D72",
"r. c #898E76",
"t. c #869677",
"y. c #8C9C74",
"u. c #919A7D",
"i. c #84AA67",
"p. c #88A46F",
"a. c #83B969",
"s. c #8BA473",
"d. c #8AAD75",
"f. c #94A47B",
"g. c #87B972",
"h. c #97B77C",
"j. c #88C26C",
"k. c #94C67B",
"l. c #8E8C88",
"z. c #908E8A",
"x. c #8C9083",
"c. c #969886",
"v. c #94938D",
"b. c #979490",
"n. c #999691",
"m. c #9C9A94",
"M. c #A19E99",
"N. c #94A284",
"B. c #9DA888",
"V. c #9CB886",
"C. c #A2A295",
"Z. c #A5A29D",
"A. c #A9A59D",
"S. c #AEAA9E",
"D. c #A7B893",
"F. c #ABB898",
"G. c #A6A4A0",
"H. c #A9A6A2",
"J. c #ADAAA5",
"K. c #AFADA8",
"L. c #B2ACA7",
"P. c #B3AEAA",
"I. c #AEB7A3",
"U. c #B2B5A6",
"Y. c #B4B3AD",
"T. c #B6BBAA",
"R. c #B7BCA9",
"E. c #B7B6B0",
"W. c #B9B6B1",
"Q. c #B7B8B1",
"!. c #BABBB4",
"~. c #BEBFB9",
"^. c #9CC08E",
"/. c #A5C08A",
"(. c #AAC596",
"). c #B5C69B",
"_. c #B5CB9B",
"`. c #BBD19F",
"'. c #B9CAA7",
"]. c #BBC2AE",
"[. c #B9D1A2",
"{. c #BEC3B3",
"}. c #BFC5B6",
"|. c #C2C9AF",
" X c #C5D6AC",
".X c #C3C5B4",
"XX c #C5CCB4",
"oX c #C3C4BD",
"OX c #C9C6BD",
"+X c #C5CBBA",
"@X c #CCCCBA",
"#X c #CAD5B4",
"$X c #D2DEBE",
"%X c #CACAC4",
"&X c #CBCBC5",
"*X c #D0CFC2",
"=X c #D4D4C5",
"-X c #D5D3CC",
";X c #D9D7CB",
":X c #DBDDCC",
">X c #DAD9D2",
",X c #E0DDD2",
"<X c #DAE4C6",
"1X c #DFE8CE",
"2X c #DFE3D2",
"3X c #E0EAC9",
"4X c #E7F0CE",
"5X c #E3E5D6",
"6X c #E5ECD2",
"7X c #E8EBD6",
"8X c #E3E5DB",
"9X c #E6EADC",
"0X c #EBECDC",
"qX c #F1EDDE",
"wX c #E9F0D3",
"eX c #EFF1DC",
"rX c #EBEDE2",
"tX c #F3EFE1",
"yX c #EEF1E4",
"uX c #F5F2E5",
"iX c #F3F4EB",
"pX c #F8F4E8",
"aX c #F6F7F1",
"sX c #F9F9F2",
/* pixels */
"[ [ [ [ [ [ [ [ [ [ [ [ [ [ [ ] @.+.[ [ } } } [ [ [ [ [ [ [ [ [ ",
"[ [ [ [ [ [ [ [ } } } ] O.[ [ o...>.X.[ } } [ [ [ [ [ [ [ [ [ [ ",
"U.D.0.<.<.<.1.d.D.T.T.Q.K.A.M.c.c.x.c.M.S.B.&.( ^ p ( V..X.X.X.X",
"R.R.D. .( ( ( ` -.d.B.c.r.e.4.~ Q Q 3.r.u.y.#.) ( ` g.|..X@X@X@X",
"!.].].^.` ^ p ^ ) #.%.U U U E T T T T T G I &.8.h.`. XXX@X*X-X;X",
"].{.{.{.^.<.( / ) N k 3 w f N A G E #.Z w 5 d C 2.).#X@X*X-X;X,X",
"{.XX+X}.}.[.8.b k 6 : - , 2 5 c S ;.-.m 2 3 : % B y..X$X;X;X,X5X",
"].{.XXXX}.[.K o   . X @ ; = > 2 n :.2.v * o .   & Q F.:X,X,X5X7X",
"{.{.XXXX}.D.j .         @ * = < g $.2.C o       % P '.5X5X5X8X9X",
"!.{.+X}.+XI.x + X . . . @ = = < i ' a.| 6 o + $ e :.$X5X5X9X9XrX",
"!.{.{.XX+X(.A , ; * * * * = , 1 y ` a.2.m 8 5 s D h.1X9X9X0XrXuX",
"!.!.{.+X+X'.| u t 1 1 1 < > = < y / 9.a._ D D  .i.[.qXqX0X0XuXpX",
"!.~.}.%X+X}.5.N b i u y 1 < > > r h 1.k.:.#.-.h.`.3XtXqX0XtXtXpX",
"!.!.~.~.oXoXN.I N b d 4 < < > > < a ,.k.2.#.:._.3XqXqXqXqXuXuXuX",
"!.Q.}.oX%XoXI.=.K N d 1 1 > > < r a ' j.2.#.:._.4XeXqXqXqXtXtXpX",
"Q.!.}.}.oXoX}.c.| K d 1 1 1 < 1 y ^ ' ,.2.:.d. X4X7X5X5X7XqXqXuX",
"E.E.E.~.~.~.}.I.t.| b 1 1 > 1 1 y h _ ' i.h.[.<X4X7X7X0XrXtXpXpX",
"E.E.!.!.~.~.~.Q.K.x.| u > = * # ; 6 g ' k.#X2XwX0X9XrXpXiXsXsXsX",
"P.Y.Y.T.W.!.~.oX}.I.4.b 4 * O X o + B 2.`.3XeXyXyXrXiXaXaXsXsXsX",
"n.M.M.M.A.P.W.W.}.Q.t.K f 8 # + % 9 %./.$XqXpXiXyXyXiXaXaXaXsXsX",
"b.n.M.n.m.M.M.M.H.H.t.L b d 5 7 z G p._. X6XpXtX8XrXrXiXiXiXaXaX",
"M.Z.A.H.H.H.J.J.L.M.3.H v u 5 w Z %.p.h._.:XrX,X&X%X%X%X-X>X>X8X",
"L.J.J.P.Y.W.W.!.W.m.W A c 8 8 f Z %.;.p.). X:X7X>X%X%XoX%XoXOX%X",
"J.J.K.P.Y.E.E.~.Y.~ J M e q 8 f Z T *.i.h.F.).|.;X>X-X-X-X-X-X-X",
"H.H.J.K.P.Q.Q.Q.l.R H x e w e v S | &.q.f.f.f.F..X=X>X>X>X>X;X>X",
"M.G.H.H.K.Y.Q.Z.! J V k 7 w e v Z G &.q.q.q.y.f.B.U.%X-X-X-X-X-X",
"M.M.Z.H.J.K.J.7.J V x 7 3 q e e n L =.w.q.4.6.3.=.y.T.&X&X&X&X&X",
"n.n.m.Z.G.H.x.Y V z 0 6 : 0 e e v L 5.s.w.*.*.E E 4.N.T.oXoXoX%X",
"b.b.b.m.M.v.Y V l 0 0 : 6 q 0 l z F %.8.w.;.&.%.%.*.r.c.L.Q.Q.!.",
"l.z.l.n.m.~ V j q 9 9 6 7 0 l l l M F %.=.6.=.%.G *.3.e.C.K.Y.Y.",
"} } [ [ [ [ } [ [ [ [ [ [ [ [ [ [ [ [ [ [ [ [ [ [ [ [ [ [ [ [ [ ",
"[ { [ [ [ [ [ [ [ [ [ [ [ [ [ [ [ [ [ [ [ [ [ [ [ [ [ [ [ [ [ [ "
};
