/* XPM */
static char *alien[] = {
/* columns rows colors chars-per-pixel */
"32 28 222 2 ",
"   c #030B02",
".  c #051404",
"X  c #091D06",
"o  c #0B2B07",
"O  c #0D2D08",
"+  c #092406",
"@  c #0A3106",
"#  c #0E3E09",
"$  c #12390C",
"%  c #183011",
"&  c #323E28",
"*  c #094406",
"=  c #074D04",
"-  c #094906",
";  c #0D4609",
":  c #134A0C",
">  c #065403",
",  c #095405",
"<  c #065903",
"1  c #095C05",
"2  c #0E5709",
"3  c #13520D",
"4  c #135A0C",
"5  c #1A5B0F",
"6  c #1B4A12",
"7  c #1C5314",
"8  c #1D5C13",
"9  c #244B19",
"0  c #24531B",
"q  c #265B1A",
"w  c #2A5D1B",
"e  c #245719",
"r  c #0E6308",
"t  c #0C6107",
"y  c #11670B",
"u  c #1A6412",
"i  c #1C6E14",
"p  c #137E12",
"a  c #1C7915",
"s  c #216817",
"d  c #24641A",
"f  c #2A621D",
"g  c #27691B",
"h  c #257B19",
"j  c #2D5922",
"k  c #2A5722",
"l  c #345B2C",
"z  c #335A27",
"x  c #304D26",
"c  c #2C6221",
"v  c #326424",
"b  c #346B29",
"n  c #3A692A",
"m  c #397229",
"M  c #3E6632",
"N  c #3F7433",
"B  c #435D3A",
"V  c #425832",
"C  c #42792E",
"Z  c #426D32",
"A  c #476C3A",
"S  c #447333",
"D  c #4A733B",
"F  c #467E30",
"G  c #51753F",
"H  c #57674D",
"J  c #4F7641",
"K  c #547543",
"L  c #557A45",
"P  c #5D794C",
"I  c #597644",
"U  c #5D6B52",
"Y  c #5F7D50",
"T  c #4F6545",
"R  c #627B4F",
"E  c #637D50",
"W  c #6B7D59",
"Q  c #67745C",
"!  c #626D59",
"~  c #727C64",
"^  c #6D7564",
"/  c #24821A",
"(  c #2B8021",
")  c #338C2C",
"_  c #38872A",
"`  c #398E31",
"'  c #43802F",
"]  c #478433",
"[  c #47953B",
"{  c #4F9233",
"}  c #56A335",
"|  c #5B8347",
" . c #5B9645",
".. c #63894A",
"X. c #668451",
"o. c #6A8855",
"O. c #738A5D",
"+. c #73875B",
"@. c #6C9853",
"#. c #749B5B",
"$. c #73915C",
"%. c #689D4F",
"&. c #59A440",
"*. c #6DB14E",
"=. c #66A457",
"-. c #75A55A",
";. c #6DAE56",
":. c #768464",
">. c #798A67",
",. c #779363",
"<. c #7C9466",
"1. c #7B9C63",
"2. c #7B8172",
"3. c #78A863",
"4. c #7EB665",
"5. c #7EAA70",
"6. c #849D6D",
"7. c #839469",
"8. c #838D72",
"9. c #898E76",
"0. c #8C9C74",
"q. c #869677",
"w. c #919A7D",
"e. c #88A46F",
"r. c #84AA67",
"t. c #83B969",
"y. c #8BA473",
"u. c #8AAD75",
"i. c #94A47B",
"p. c #97B77C",
"a. c #87B972",
"s. c #94C67B",
"d. c #88C26C",
"f. c #908E8A",
"g. c #8C9083",
"h. c #94938D",
"j. c #969886",
"k. c #999691",
"l. c #9C9A94",
"z. c #979490",
"x. c #8E8C88",
"c. c #A19E99",
"v. c #94A284",
"b. c #9DA888",
"n. c #9CB886",
"m. c #A2A295",
"M. c #A5A29D",
"N. c #A9A59D",
"B. c #AEAA9E",
"V. c #ABB898",
"C. c #A7B893",
"Z. c #B2B79F",
"A. c #A0AD88",
"S. c #A9A6A2",
"D. c #ADAAA5",
"F. c #AFADA8",
"G. c #A6A4A0",
"H. c #B3AEAA",
"J. c #B2ACA7",
"K. c #AEB7A3",
"L. c #B2B5A6",
"P. c #B4B3AD",
"I. c #B6BBAA",
"U. c #B7BCA9",
"Y. c #B7B6B0",
"T. c #B9B6B1",
"R. c #B7B8B1",
"E. c #BABBB4",
"W. c #BEBFB9",
"Q. c #9CC08E",
"!. c #AAC596",
"~. c #B5CB9B",
"^. c #B5C69B",
"/. c #BBD19F",
"(. c #A5C08A",
"). c #BBC2AE",
"_. c #B9CAA7",
"`. c #B9D1A2",
"'. c #BEC3B3",
"]. c #BFC5B6",
"[. c #C2C9AF",
"{. c #C5D6AC",
"}. c #C3C5B4",
"|. c #C5CCB4",
" X c #C3C4BD",
".X c #C9C6BD",
"XX c #C5CBBA",
"oX c #CCCCBA",
"OX c #CAD5B4",
"+X c #D2DEBE",
"@X c #D0E0B7",
"#X c #CBCBC5",
"$X c #CACAC4",
"%X c #D0CFC2",
"&X c #D5D3CC",
"*X c #D9D7CB",
"=X c #DBDDCC",
"-X c #D4D4C5",
";X c #DAD9D2",
":X c #E0DDD2",
">X c #DFE8CE",
",X c #DAE4C6",
"<X c #DFE3D2",
"1X c #E0EAC9",
"2X c #E7F0CE",
"3X c #E3E5D6",
"4X c #E5ECD2",
"5X c #E3E5DB",
"6X c #E6EADC",
"7X c #EBECDC",
"8X c #E8EBD6",
"9X c #F1EDDE",
"0X c #E9F0D3",
"qX c #EFF1DC",
"wX c #EBEDE2",
"eX c #F3EFE1",
"rX c #EEF1E4",
"tX c #F5F2E5",
"yX c #F3F4EB",
"uX c #F8F4E8",
"iX c #F6F7F1",
"pX c #F9F9F2",
/* pixels */
"L.C.5.=.=.=.;.u.C.I.I.R.F.N.c.j.j.g.j.c.B.b.o.) / p ) n.}.}.}.}.",
"U.U.C. .) ) ) [ @.u.b.j.9.8.>.~ W W :.9.w.0...] ) [ a.[.}.oXoXoX",
"E.).).Q.[ / p / ] ..X.P P P E R R R R R G L o.3.p./.{.|.oX%X&X*X",
").'.'.'.Q.=.) ( ] N k 3 q f N A G E ..Z q 5 d C -.^.OXoX%X&X*X:X",
"'.|.XX].].`.3.b k 6 : - , 2 5 c S $.@.m 2 3 : % V 0.}.+X*X*X:X3X",
").'.|.|.].`.J +   . X @ ; = > 2 n #.-.v * + .   & W V.=X:X:X3X8X",
"'.'.|.|.].C.x .         @ * = < g %.-.C +       % I _.3X3X3X5X6X",
"E.'.XX].XXK.l O X . . . @ = = < i } t.| 6 + O $ w #.+X3X3X6X6XwX",
"E.'.'.|.XX!.A , ; * * * * = , 1 y [ t.-.m 8 5 s F p.>X6X6X7XwXtX",
"E.E.'.XXXX_.| u r 1 1 1 < > = < y ( 4.t.{ F F  .r.`.9X9X7X7XtXuX",
"E.W.].$XXX].,.N b i u y 1 < > > t h ;.s.#...@.p./.1XeX9X7XeXeXuX",
"E.E.W.W. X Xv.L N b d 4 < < > > < a *.s.-...#.~.1X9X9X9X9XtXtXtX",
"E.R.]. X$X XK.O.J N d 1 1 > > < t a } d.-...#.~.2XqX9X9X9XeXeXuX",
"R.E.].]. X X].j.| J d 1 1 1 < 1 y / } *.-.#.u.{.2X8X3X3X8X9X9XtX",
"Y.Y.R.W.W.W.].K.q.| b 1 1 > 1 1 y h { } r.p.`.,X2X8X8X7XwXeXuXuX",
"Y.Y.E.E.W.W.W.R.F.g.| u > = * # ; 6 g } s.OX<X0X7X6XwXuXyXpXpXpX",
"H.P.P.I.T.E.W. X].K.>.b 4 * o X + O V -./.1XqXrXrXwXyXiXiXpXpXpX",
"k.c.c.c.N.J.T.T.W.R.q.J f 8 # O % 9 X.(.+X9XuXyXrXrXyXiXiXiXpXpX",
"z.k.c.k.l.c.c.c.S.N.q.K b d 5 7 z G e.~.{.4XuXeX5XwXwXyXyXyXiXiX",
"c.M.N.S.S.S.D.D.J.M.:.T v u 5 q Z X.e.p.~.=XwX:X#X$X$X#X&X;X;X5X",
"J.D.D.H.P.T.Y.E.T.l.Q A c 8 8 f Z X.$.e.^.{.=X8X;X$X$X X$X X.X$X",
"D.D.F.H.P.Y.R.W.P.~ H M w e 8 f Z R +.r.p.V.^.[.*X;X&X&X&X&X&X&X",
"S.S.D.F.H.R.R.R.x.! T l w q w v S | o.7.i.i.i.V.}.-X;X;X;X;X*X;X",
"c.G.S.S.F.P.R.M.^ H B k 7 q w v Z G o.7.7.7.0.i.b.L.$X&X&X&X&X&X",
"c.c.M.S.D.F.D.2.H B l 7 3 e w w n K O.6.7.>.<.:.O.0.U.#X#X#X#X#X",
"k.k.l.M.G.S.g.U B z 0 6 : 0 w w v K ,.y.6.+.+.E R >.v.I. X X X$X",
"z.z.z.l.c.h.U B j 0 0 : 6 e 0 j z D X.3.6.$.o.X.X.+.9.j.F.R.R.E.",
"x.f.f.k.l.~ B x e 9 9 6 7 0 j j j M D X.O.<.O.X.G +.:.8.m.F.P.P."
};
