/* XPM */
static char *c_new[] = {
/* columns rows colors chars-per-pixel */
"32 32 103 2 ",
"   c #18181E",
".  c #1A1A21",
"X  c #23232D",
"o  c #2A2A33",
"O  c #40404C",
"+  c #464652",
"@  c #4B4C59",
"#  c #52525F",
"$  c #7B4C5B",
"%  c #545464",
"&  c #585967",
"*  c #5C5C6C",
"=  c #5E5F71",
"-  c #6D5566",
";  c #635D6D",
":  c #6D5B6A",
">  c #705162",
",  c #715868",
"<  c #645E70",
"1  c #5F606F",
"2  c #5F6073",
"3  c #61616F",
"4  c #626375",
"5  c #696675",
"6  c #676877",
"7  c #696977",
"8  c #656778",
"9  c #676978",
"0  c #6B6C7B",
"q  c #796B77",
"w  c #716F7C",
"e  c #6E707D",
"r  c #73727E",
"t  c #BE2534",
"y  c #B52837",
"u  c #BC2B3B",
"i  c #C5202E",
"p  c #CC2433",
"a  c #C72F3E",
"s  c #CA293A",
"d  c #D32536",
"f  c #D52738",
"g  c #D52839",
"h  c #D82839",
"j  c #C5303F",
"k  c #9B3847",
"l  c #953B4B",
"z  c #A53343",
"x  c #AD3342",
"c  c #B83242",
"v  c #844C5C",
"b  c #3E905F",
"n  c #368D63",
"m  c #368C64",
"M  c #499559",
"N  c #519755",
"B  c #767681",
"V  c #7A7781",
"C  c #7D7A83",
"Z  c #817D87",
"A  c #807F89",
"S  c #A27C83",
"D  c #85828B",
"F  c #88848D",
"G  c #8C888F",
"H  c #8D8A92",
"J  c #928E95",
"K  c #949096",
"L  c #949198",
"P  c #9A969C",
"I  c #9C999E",
"U  c #A18A8F",
"Y  c #AD9195",
"T  c #9D9AA0",
"R  c #A19DA2",
"E  c #A5A1A5",
"W  c #A6A3A8",
"Q  c #A8A4A8",
"!  c #AEAAAD",
"~  c #B0AEB1",
"^  c #B4B2B4",
"/  c #B9B6B7",
"(  c #B9B6B8",
")  c #BDBBBC",
"_  c #C0BEBE",
"`  c #C1BFC0",
"'  c #C5C2C3",
"]  c #C8C6C6",
"[  c #C9C7C8",
"{  c #CCCBCB",
"}  c #D0CFCE",
"|  c #D0D0CF",
" . c #D4D4D3",
".. c #D8D7D7",
"X. c #D7D8D6",
"o. c #D8D8D7",
"O. c #DCDBDB",
"+. c #E0DFDF",
"@. c gray89",
"#. c #ECECEC",
"$. c #EFF0EF",
"%. c #EFF0F0",
"&. c #F4F5F5",
/* pixels */
"n n n n n n n n n n n n n n n b N M n n m m m n n n n n n n n n ",
"&.&.&.&.&.&.%.#.$.#.@.@.+.O.X.X. . . .| | | |  . .X.O.O.@.@.$.&.",
"&.&.&.&.&.#.#.#.@.@.+.O.o. .{ ' ) ^ ^ ^ ) ] { { }  . .X.O.@.@.#.",
"&.&.&.%.$.#.@.@.+.O.X.{ ^ K D r r e e r r D I ) { { }  .X.O.+.@.",
"&.&.&.#.#.@.@.O.O.| ! D w 0 0 e e e e e e e 0 r R ] { }  .X.X.@.",
"&.#.#.#.@.+.O...{ J 0 e e e e e e e e e e e e e e L ] { |  .o.+.",
"#.#.@.@.O.O...{ F 7 e 7 0 e e e e e e e e e e e e e J _ { | X.o.",
"#.@.@.+.O.X.) C 7 0 7 * 0 0 e 0 e 0 6 0 0 e e 0 7 e 7 A ( }  .X.",
"#.@.+.O.X.Q 0 * e e 4 * 0 & 0 0 e 6 1 0 0 0 0 0 4 7 e 0 C _ | X.",
"@.@.O. .T 0 ; 4 0 0 * 4 8 & e 0 0 0 % 0 0 0 0 e 7 4 e 0 7 G {  .",
"@.@.O.R 9 0 = 4 9 0 3 4 0 7 0 0 0 0 8 0 0 e 0 0 e 3 8 0 0 e /  .",
"@.+._ w 0 0 4 & & 7 7 0 e 0 4 0 0 0 0 8 + + * 7 0 4 6 0 0 8 T  .",
"@.O.T 7 0 0 0 5 * 3 7 4 @ o o 8 0 0 0 4 o .   & e 6 1 e 0 0 I | ",
"+.O.H 9 0 0 0 9 1 0 0 @ X O 1 0 0 0 0 0 0 * # 8 0 7 3 7 0 r ^ { ",
"+.O.L 7 0 0 0 5 r 0 0 8 8 0 0 0 7 0 9 9 0 0 0 0 0 0 r w r E [ { ",
"+.O.~ 5 9 9 4 G E 7 0 0 0 0 0 7 1 * & 1 0 0 0 0 7 r ^ ^ ( ] [ { ",
"+.O. .R C A R _ ) C 8 8 8 7 4 8 9 7 8 9 4 : 5 7 8 K ) _ ' [ [ { ",
"+.O. . .[ [ [ ' ` ! B 9 8 v x l , 9 5 $ z a l 5 G ( _ _ ' ' [ { ",
"+.O.X. .{ [ ' ' ` ) ! D q c h d y z z t i p a Y ) ) ) ` ' ] [ } ",
"+.O... .{ [ [ ' ` ` ` ( U j f f i d d i p g s S ^ ) ` ` ' ] { } ",
"@.+... .} [ [ ' ` ~ T C < x f f p z k u h h u : B A P ) ] [ {  .",
"@.@.O. .} { [ ' J 9 < 4 8 $ c s k ; 4 - l z $ 4 4 4 4 T [ [ }  .",
"@.@.O.X. .{ { ` B < 4 4 4 = - > < 4 4 4 4 4 4 4 8 4 4 W { {  ...",
"@.@.+... . .{ [ H = = 2 = = 8 2 4 4 4 4 4 4 = & < 5 J ' {  . ...",
"@.@.+.O.X. .{ { ` P F H C = = 8 4 2 4 4 4 4 = V W ^ ] {  . ...+.",
"#.@.+.O... . .{ { [ [ ] A < 8 = 8 = 8 2 < 4 = < Z R { }  ...O.@.",
"@.@.+.+.O.X. . .{ [ [ ] A 2 4 4 = 8 = 8 2 4 4 % = B }  .O.O.+.@.",
"@.@.+.O.O... . .} } { [ D = 4 4 2 8 8 2 2 4 = % = J  ...O.+.@.@.",
"@.@.+.O.O.O.X.X. . .} } R = = 2 = = 2 2 2 2 & # w ` O.O.O.@.@.@.",
"@.+.O.O.O.O...X. . . . .` 9 = = = B 8 = 4 = 0 W ' O.O.O.@.@.@.@.",
"O.O.O.O.O.O.O... . . . . .J = = = T D = < 4 ! ..O.O.O.+.@.@.@.@.",
"O.O.O.O.O.O.O.X......... .` V & ; ( T = 5 R ..O.O.O.O.+.@.@.@.@."
};
