/* XPM */
static char *c_resized[] = {
/* columns rows colors chars-per-pixel */
"32 31 102 2 ",
"   c #18181E",
".  c #1A1A21",
"X  c #23232D",
"o  c #2A2A33",
"O  c #353540",
"+  c #40404C",
"@  c #464652",
"#  c #4B4C59",
"$  c #52525F",
"%  c #7B4C5B",
"&  c #545464",
"*  c #585967",
"=  c #5C5C6C",
"-  c #5E5F71",
";  c #6D5566",
":  c #635D6D",
">  c #6D5B6A",
",  c #705162",
"<  c #715868",
"1  c #645E70",
"2  c #5F606F",
"3  c #5F6073",
"4  c #61616F",
"5  c #68606F",
"6  c #626375",
"7  c #696675",
"8  c #676877",
"9  c #696977",
"0  c #656778",
"q  c #676978",
"w  c #6B6C7B",
"e  c #796B77",
"r  c #716F7C",
"t  c #6E707D",
"y  c #73727E",
"u  c #BE2534",
"i  c #B52837",
"p  c #BC2B3B",
"a  c #A4303F",
"s  c #C5202E",
"d  c #CC2433",
"f  c #C72F3E",
"g  c #CA293A",
"h  c #D32536",
"j  c #D52738",
"k  c #D52839",
"l  c #D82839",
"z  c #C5303F",
"x  c #9B3847",
"c  c #953B4B",
"v  c #9A3C4C",
"b  c #A53343",
"n  c #AD3342",
"m  c #B83242",
"M  c #844C5C",
"N  c #767681",
"B  c #7A7781",
"V  c #7D7A83",
"C  c #817D87",
"Z  c #807F89",
"A  c #A27C83",
"S  c #85828B",
"D  c #88848D",
"F  c #8C888F",
"G  c #8D8A92",
"H  c #928E95",
"J  c #949096",
"K  c #949198",
"L  c #9A969C",
"P  c #9C999E",
"I  c #A18A8F",
"U  c #AD9195",
"Y  c #9D9AA0",
"T  c #A19DA2",
"R  c #A5A1A5",
"E  c #A6A3A8",
"W  c #A8A4A8",
"Q  c #AEAAAD",
"!  c #B0AEB1",
"~  c #B4B2B4",
"^  c #B9B6B7",
"/  c #B9B6B8",
"(  c #BDBBBC",
")  c #C0BEBE",
"_  c #C1BFC0",
"`  c #C5C2C3",
"'  c #C8C6C6",
"]  c #C9C7C8",
"[  c #CCCBCB",
"{  c #D0CFCE",
"}  c #D0D0CF",
"|  c #D4D4D3",
" . c #D8D7D7",
".. c #D7D8D6",
"X. c #D8D8D7",
"o. c #DCDBDB",
"O. c #E0DFDF",
"+. c #E3E3E3",
"@. c #ECECEC",
"#. c #EFF0EF",
"$. c #EFF0F0",
"%. c #F4F5F5",
/* pixels */
"%.%.%.%.%.%.$.@.#.@.+.+.O.o.....| | | } } } } | | ..o.o.+.+.#.%.",
"%.%.%.%.%.@.@.@.+.+.O.o.X.| [ ` ( ~ ~ ~ ( ' [ [ { | | ..o.+.+.@.",
"%.%.%.$.#.@.+.+.O.o...[ ~ J S y y t t y y S P ( [ [ { | ..o.O.+.",
"%.%.%.@.@.+.+.o.o.} Q S r w w t t t t t t t w y T ' [ { | ....+.",
"%.@.@.@.+.O.o. .[ H w t t t t t t t t t t t t t t K ' [ } | X.O.",
"@.@.+.+.o.o. .[ D 9 t 9 w t t t t t t t t t t t t t H ) [ } ..X.",
"@.+.+.O.o...( V 9 w 9 = w w t w t w 8 w w t t w 9 t 9 Z / { | ..",
"@.+.O.o...W w = t t 6 = w * w w t 8 2 w w w w w 6 9 t w V ) } ..",
"+.+.o.| Y w : 6 w w = 6 0 * t w w w & w w w w t 9 6 t w 9 F [ | ",
"+.+.o.T q w - 6 q w 4 6 w 9 w w w w 0 w w t w w t 4 0 w w t ^ | ",
"+.O.) r w w 6 * * 9 9 w t w 6 w w w w 0 @ @ = 9 w 6 8 w w 0 Y | ",
"+.o.Y 9 w w w 7 = 4 9 6 # o o 0 w w w 6 o .   * t 8 2 t w w P } ",
"O.o.G q w w w q 2 w w # X + 2 w w w w w w = $ 0 w 9 4 9 w y ~ [ ",
"O.o.K 9 w w w 7 y w w 0 0 w w w 9 w q q w w w w w w y r y R ] [ ",
"O.o.! 7 q q 6 F R 9 w w w w w 9 2 = * 2 w w w w 9 y ~ ~ / ' ] [ ",
"O.o.| T V Z T ) ( V 0 0 0 9 6 0 q 9 0 q 6 > 7 9 0 J ( ) ` ] ] [ ",
"O.o.| | ] ] ] ` _ Q N q 0 M n c < q 7 % b f c 7 F / ) ) ` ` ] [ ",
"O.o...| [ ] ` ` _ ( Q S e m l h i b b u s d f U ( ( ( _ ` ' ] { ",
"O.o. .| [ ] ] ` _ _ _ / I z j j s h h s d k g A ~ ( _ _ ` ' [ { ",
"+.O. .| { ] ] ` _ ! Y V 1 n j j d b x p l l p > N Z L ( ' ] [ | ",
"+.+.o.| { [ ] ` H q 1 6 0 % m g x : 6 ; c b % 6 6 6 6 Y ] ] { | ",
"+.+.o...| [ [ _ N 1 6 6 6 - ; , 1 6 6 6 6 6 6 6 0 6 6 E [ [ |  .",
"+.+.O. .| | [ ] G - - 3 - - 0 3 6 6 6 6 6 6 - * 1 7 H ` [ | |  .",
"+.+.O.o...| [ [ _ L D G V - - 0 6 3 6 6 6 6 - B E ~ ' [ | |  .O.",
"@.+.O.o. .| | [ [ ] ] ' Z 1 0 - 0 - 0 3 1 6 - 1 C T [ { |  .o.+.",
"+.+.O.O.o...| | [ ] ] ' Z 3 6 6 - 0 - 0 3 6 6 & - N { | o.o.O.+.",
"+.+.O.o.o. .| | { { [ ] S - 6 6 3 0 0 3 3 6 - & - H |  .o.O.+.+.",
"+.+.O.o.o.o.....| | { { T - - 3 - - 3 3 3 3 * $ r _ o.o.o.+.+.+.",
"+.O.o.o.o.o. ...| | | | _ q - - - N 0 - 6 - w E ` o.o.o.+.+.+.+.",
"o.o.o.o.o.o.o. .| | | | | H - - - Y S - 1 6 Q  .o.o.o.O.+.+.+.+.",
"o.o.o.o.o.o.o... . . . .| _ B * : / Y - 7 T  .o.o.o.o.O.+.+.+.+."
};
