/* XPM */
static char *exit_resized[] = {
/* columns rows colors chars-per-pixel */
"32 32 84 1 ",
"  c #2A2B2C",
". c #2B2C2D",
"X c #2C2C2D",
"o c #2D2D2D",
"O c #2D2E2F",
"+ c #372E27",
"@ c #3E3027",
"# c #39312A",
"$ c #2E2F30",
"% c #303031",
"& c #303132",
"* c #313132",
"= c #323333",
"- c #333434",
"; c #343536",
": c #373737",
"> c #393A3A",
", c #393A3B",
"< c #3B3B3B",
"1 c #3D3D3D",
"2 c #55361D",
"3 c #56361E",
"4 c #633512",
"5 c #653511",
"6 c #633816",
"7 c #643815",
"8 c #6C3A15",
"9 c #663E1F",
"0 c #6C3E1C",
"q c #733F17",
"w c #723F18",
"e c #433226",
"r c #443226",
"t c #443326",
"y c #4E3521",
"u c #463428",
"i c #463528",
"p c #40362F",
"a c #48372A",
"s c #49372B",
"d c #513824",
"f c #523A26",
"g c #5A3C24",
"h c #5B3D25",
"j c #5D3D24",
"k c #5E3E24",
"l c #5F3F25",
"z c #553B28",
"x c #633D20",
"c c #724019",
"v c #7D461B",
"b c #7C461C",
"n c #7F471C",
"m c #44413E",
"M c #514032",
"N c #594434",
"B c #604026",
"V c #604027",
"C c #60442D",
"Z c #434343",
"A c #4B4642",
"S c #4B4947",
"D c #844719",
"F c #894A1A",
"G c #8A4A1A",
"H c #8A4A1B",
"J c #8A4B1B",
"K c #8B4B1B",
"L c #894B1C",
"P c #8A4C1D",
"I c #8C4D1C",
"U c #8E4E1D",
"Y c #8F4F1E",
"T c #8E4F1F",
"R c #90501F",
"E c #91501F",
"W c #91511F",
"Q c #92501E",
"! c #93511E",
"~ c #92511F",
"^ c #93511F",
"/ c #915120",
"( c #935220",
") c None",
/* pixels */
"))))))))))))))))))))))))))))))))",
"))))))))))))))))))))))))))))))))",
"))))))))))))))))))))))))))))))))",
"))))))))))))))))))))))))))))))))",
"))))))))))))))))))))))))))))))))",
"))))))))))))))))))))))))))))))))",
"))))))))))))));<>>%)))))))))))))",
")))))))))))))SMx9zA1))))))))))))",
"))))))))))))ZCK!!Y0Z))))))))))))",
"))))))))))))pvRR(RIN>)))))))))))",
"))))))))))))rKRR(RRxo)))))))))))",
"))))))))))))aH!R(Rbf=)))))))))))",
"))))))))))))rHRR(T3+o)))))))))))",
"))))))))))))iHRR(IIh$)))))))))))",
"))))))))))))a57R(R(V%)))))))))))",
"))))))))))))e46R(RRj )))))))))))",
"))))))))))))aDIR(RYV%)))))))))))",
"))))))))))))iKRR(R(x$)))))))))))",
"))))))))))))rHRR((bfo)))))))))))",
"))))))))))))aHRRTI3#-)))))))))))",
"))))))))))))rK((((Iho)))))))))))",
"))))))))))))@8wwcwwy$)))))))))))",
"))))))))))))))))))))))))))))))))",
"))))))))))))))))))))))))))))))))",
"))))))))))))))))))))))))))))))))",
"))))))))))))))))))))))))))))))))",
"))))))))))))))))))))))))))))))))",
"))))))))))))))))))))))))))))))))",
"))))))))))))))))))))))))))))))))",
"))))))))))))))))))))))))))))))))",
"))))))))))))))))))))))))))))))))",
"))))))))))))))))))))))))))))))))"
};
