/* XPM */
static char *exit_new[] = {
/* columns rows colors chars-per-pixel */
"32 32 136 2 ",
"   c #2A2B2C",
".  c #2D2D2D",
"X  c #372E27",
"o  c #3E3027",
"O  c #39312A",
"+  c #2E2F30",
"@  c #303031",
"#  c #323333",
"$  c #333434",
"%  c #343536",
"&  c #393A3A",
"*  c gray23",
"=  c gray24",
"-  c #56361E",
";  c #633512",
":  c #653511",
">  c #633816",
",  c #643815",
"<  c #6C3A15",
"1  c #663E1F",
"2  c #6C3E1C",
"3  c #723F18",
"4  c #433226",
"5  c #443226",
"6  c #4E3521",
"7  c #463528",
"8  c #40362F",
"9  c #48372A",
"0  c #523A26",
"q  c #5B3D25",
"w  c #5D3D24",
"e  c #553B28",
"r  c #633D20",
"t  c #724019",
"y  c #7D461B",
"u  c #7C461C",
"i  c #514032",
"p  c #594434",
"a  c #604027",
"s  c #60442D",
"d  c #24695F",
"f  c #347459",
"g  c #35785A",
"h  c #387B5A",
"j  c #1F6661",
"k  c #186165",
"l  c #1D6965",
"z  c #1F6F66",
"x  c #186768",
"c  c #226C62",
"v  c #216E64",
"b  c #277566",
"n  c #2B7661",
"m  c #287562",
"M  c #267A67",
"N  c #287E67",
"B  c #20776A",
"V  c #237868",
"C  c #237A69",
"Z  c #277B68",
"A  c #307D61",
"S  c #434343",
"D  c #4B4642",
"F  c #4B4947",
"G  c #844719",
"H  c #8A4A1B",
"J  c #8B4B1B",
"K  c #8C4D1C",
"L  c #8F4F1E",
"P  c #8E4F1F",
"I  c #90501F",
"U  c #93511E",
"Y  c #935220",
"T  c #37835E",
"R  c #37845E",
"E  c #3D875B",
"W  c #39855E",
"Q  c #3D8B5D",
"!  c #3E8F5E",
"~  c #3D905F",
"^  c #3E905F",
"/  c #298067",
"(  c #2F8364",
")  c #2C8367",
"_  c #2E8565",
"`  c #2A8168",
"'  c #348160",
"]  c #318563",
"[  c #358562",
"{  c #308464",
"}  c #368D63",
"|  c #368E63",
" . c #318865",
".. c #348A64",
"X. c #358B64",
"o. c #368C64",
"O. c #3A8C60",
"+. c #3B8F60",
"@. c #388D62",
"#. c #3C8F60",
"$. c #3D8F60",
"%. c #5B974D",
"&. c #5B9B4F",
"*. c #5D994C",
"=. c #5B9C4F",
"-. c #5D9D4D",
";. c #5F9E4C",
":. c #428356",
">. c #438A59",
",. c #4C9657",
"<. c #4E9656",
"1. c #45935A",
"2. c #479459",
"3. c #42915C",
"4. c #41915E",
"5. c #44925C",
"6. c #499559",
"7. c #519453",
"8. c #559550",
"9. c #519755",
"0. c #579A51",
"q. c #549953",
"w. c #559A53",
"e. c #529854",
"r. c #589B50",
"t. c #689F47",
"y. c #619F4B",
"u. c #629E4B",
"i. c #659E48",
"p. c #6FA543",
"a. c #68A147",
"s. c #6AA246",
"d. c #6BA246",
"f. c #6CA345",
"g. c #66A148",
"h. c #64A04A",
/* pixels */
"} } } } } } } } } } } X.} } } ^ 9.6.} } o.o.o.o.} } } } } } } } ",
"} } } } } } } } } } } ! 5.} } 4.-.a.,.} o.o.o.o.} } } o.} } } } ",
"} } } } } } 4.,.4.} ^ =.&.} } } 4.&.e.} ( _ X.} o._ ` ( } } } } ",
"} } } } o.} 6.g.u.4.,.s.,.} } } } } } _ v ' { } _ R { M  .} } } ",
"} } } } } } } 6.-.,.2.,.| | | X.} } X.Z c 7.W { E a.a.m _ } } } ",
"} } } } } } } } } } } } o.X.| X.} X.{ T h X.,.n &.a.=.l _ } } } ",
"} o.} } } } ^ 2.^ } o.| | o.% = & & @ 8.9.N b k T 0.g x _ } } } ",
"} ^ 1.! } ^ =.a.,.o.| o.| F e 1 1 e D = o.{ l l { } z M { } } } ",
"} 9.a.=.! 6.u.,.} } } } S s J U I P 2 S } } X.} } } } } } 4.1.@.",
"} @.9.u.6.@.@.} } } } } 8 y I I U I K p & } } } } } } } 2.i.g.4.",
"} } } @.} } } } } } } } 5 J I I Y Y Y r . } } } } } } @.r.h.4.o.",
"} } } } } } } } } } } } 9 J I I Y I u 0 @ } } } } } } } @.@.} } ",
"} } } } } } } } } } } } 5 J I I Y L - X . } } } } } } } } } } } ",
"} } } } } } } } } } } } 7 J I I Y L J q + } } } } } } } } } } } ",
"} } } } } } } } } } } } 9 : , I U I Y a @ } } } } } } } } } } } ",
"} } } } } } } } } } } } 4 ; , L Y I P q   } } } } } } } } } } } ",
"} } } } } } o.} } } } } 9 G K I Y P P a @ } } } } } } } } } } } ",
"} } } } } } ^ o.} } } } 7 K I I Y Y Y 1 . } } } } } } } } } } } ",
"} } } } @.r.,.} } } } } 5 J I I Y Y u 0 . } } } } } } } } } } } ",
"} +.o.o.0.a.e.o.X.} { } 9 J I I P K - O $ } } } } } } } ^ @.} } ",
"} 0.,.} 0.e.} o.( M M N 4 J I U Y Y K q . } @.} o.| o.^ -.4.o.} ",
"} =.a.6.^ @.o.` W &.,.b o < t t t t 3 6 + } @.} | o.+.;.g.^ } ^ ",
"} @.-.,.o.} o.` Z [ 7.:.f ;.W d j l } } } ! =.a.h.^ o.h.2.>.-.g.",
"} } ^ @.} o.o.{ _  .@.Q ] ^ X.( ( ] } } } } 6.a.f.;.^ ^ | r.a.,.",
"} @.} X.X. .{ Z V M | } } } } } @.} } } } } } 4.4.4.} } } 4.4.@.",
"} } N M Z B E &.g b } } } 6.h.i.r.} } } } } } } } } } } } } } } ",
"} N >.%.5.v :.&.n z } } 2.a.p.h.4.} } } } } } } } } } } } } } } ",
"} N M ! w.f m g x M } } ~ 1.4.4.} } } } } } } } } } } } } } } } ",
"@. .{  .^ @.{ { (  .} } } } } } } } } } } } } } } } } } } } } } ",
"o.o.o.} o.o.o.@.} } } } } } } } } } } } } } } } } } } } } } } } ",
"} } } } } } o.o.} } } } } } } } } } } } } } } } } } } } } } } } ",
"} } } } } } } } } } } } } } } } } } } } } } } } } } } } } } } } "
};
