/* XPM */
static char *floor_resized[] = {
/* columns rows colors chars-per-pixel */
"32 16 78 1 ",
"  c #6BDA4A",
". c #6BDB4A",
"X c #6CDB4A",
"o c #6DDB4A",
"O c #6EDB4A",
"+ c #6CDC4A",
"@ c #6DDC4A",
"# c #6DDC4B",
"$ c #6EDC4A",
"% c #6FDC4A",
"& c #6EDD4A",
"* c #6FDD4A",
"= c #6EDC4B",
"- c #6EDD4B",
"; c #6FDD4B",
": c #6FDE4B",
"> c #70DC4A",
", c #71DC4A",
"< c #70DD4A",
"1 c #71DD4A",
"2 c #70DD4B",
"3 c #71DD4B",
"4 c #72DD4A",
"5 c #72DD4B",
"6 c #73DD4B",
"7 c #71DE4A",
"8 c #70DE4B",
"9 c #71DE4B",
"0 c #70DF4B",
"q c #71DF4B",
"w c #72DE4A",
"e c #73DE4A",
"r c #72DE4B",
"t c #73DE4B",
"y c #72DF4B",
"u c #73DF4B",
"i c #74DE4B",
"p c #75DE4B",
"a c #74DF4B",
"s c #75DF4B",
"d c #76DF4B",
"f c #77DF4B",
"g c #71E04B",
"h c #72E04B",
"j c #73E04B",
"k c #75E04B",
"l c #74E14B",
"z c #76E04B",
"x c #77E04B",
"c c #77E14B",
"v c #74E24B",
"b c #75E24B",
"n c #72E04C",
"m c #74E14C",
"M c #74E24C",
"N c #75E24C",
"B c #76E24C",
"V c #78E04B",
"C c #79E04B",
"Z c #7AE04B",
"A c #7AE14B",
"S c #7BE14B",
"D c #79E24B",
"F c #7DE24B",
"G c #79E24C",
"H c #7DE24C",
"J c #7EE34C",
"K c #7FE34C",
"L c #7FE44C",
"P c #80E34C",
"I c #81E44C",
"U c #82E44C",
"Y c #82E54C",
"T c #84E54C",
"R c #85E54C",
"E c #84E64C",
"W c #85E64C",
"Q c #86E64C",
/* pixels */
";;4;AbApOfyyOOyOOOyOZmZf#myy##yO",
"b;4O;OPA>yOyy#>fmy>y#OPZ>y#yyOyf",
";4AOn;4;fOf Of>f>>f>m#y#f>f >fOf",
";FW;;O;;OOyyyyyyyKW>yO#OOOf#f>yy",
";;4 ;;p4#yfOyfOOO>yO#Of>OyfOyfOO",
"A;n4;;F4OyKOyyyyfyyy#OKyOOKy>yyy",
"4;OZP;;Om#OOyOy>>OOZT##Om#OOyOyO",
";j;pKO; Oy#OOO>OOmOfPO#OOy#OO>y>",
"Oj;;>4pOn#yPyyKKOyOyyyfOyOyPyyKP",
"p4;jOFPOyOfWO fyfy#mOZPOyOfTOOyf",
"4;;;OOO;yOyO yyOyOO#OOO#y#yOOyyO",
"4;O4b;;bZOy#OyOfyyOfmOOfZ #y yOf",
";j;4b;O4y >OO>OyOm#ff Oy>OyOOyOy",
";;4K;44;yyTfyyyOOOyKyy#yfyWfy#yO",
";O4L;;O4O fyOOyyyOyK##OyOOfOOO>y",
";;; bpOpOyyO#ZWOOOy ff>yO#yOyfTO"
};
