/* XPM */
static char *grass[] = {
/* columns rows colors chars-per-pixel */
"32 32 228 2 ",
"   c #24695F",
".  c #31755B",
"X  c #347459",
"o  c #35785A",
"O  c #387B5A",
"+  c #1F6661",
"@  c #1F6562",
"#  c #186165",
"$  c #196667",
"%  c #1D6965",
"&  c #1D6A65",
"*  c #1E6A65",
"=  c #1F6E65",
"-  c #1F6F66",
";  c #186768",
":  c #226C62",
">  c #216E64",
",  c #206E66",
"<  c #227065",
"1  c #237767",
"2  c #277566",
"3  c #2A7461",
"4  c #2B7661",
"5  c #287562",
"6  c #287662",
"7  c #267A65",
"8  c #277A66",
"9  c #267A67",
"0  c #297864",
"q  c #297A65",
"w  c #297D65",
"e  c #2A7F65",
"r  c #287E67",
"t  c #2C7F64",
"y  c #227768",
"u  c #237768",
"i  c #20776A",
"p  c #237868",
"a  c #237968",
"s  c #237969",
"d  c #237A69",
"f  c #257968",
"g  c #247A68",
"h  c #277B68",
"j  c #257C68",
"k  c #307D61",
"l  c #317E60",
"z  c #37835E",
"x  c #36825F",
"c  c #37845E",
"v  c #3D875B",
"b  c #3B855D",
"n  c #39855E",
"m  c #3C855C",
"M  c #3D8B5D",
"N  c #3E8F5E",
"B  c #3F905D",
"V  c #3D905F",
"C  c #3E905E",
"Z  c #3F905E",
"A  c #3E905F",
"S  c #298067",
"D  c #2B8067",
"F  c #2A8267",
"G  c #2D8165",
"H  c #2D8265",
"J  c #2E8264",
"K  c #2F8364",
"L  c #2E8365",
"P  c #2D8266",
"I  c #2C8367",
"U  c #2F8465",
"Y  c #2E8565",
"T  c #2F8565",
"R  c #2C8466",
"E  c #2D8466",
"W  c #2D8467",
"Q  c #2E8566",
"!  c #2F8666",
"~  c #2A8068",
"^  c #2A8168",
"/  c #348160",
"(  c #318563",
")  c #358562",
"_  c #308464",
"`  c #318564",
"'  c #308665",
"]  c #318665",
"[  c #328664",
"{  c #368861",
"}  c #358963",
"|  c #368B63",
" . c #358C63",
".. c #358D63",
"X. c #378D62",
"o. c #368C63",
"O. c #368D63",
"+. c #378D63",
"@. c #378E62",
"#. c #368E63",
"$. c #318865",
"%. c #328864",
"&. c #328964",
"*. c #338964",
"=. c #328865",
"-. c #328965",
";. c #328A64",
":. c #338A64",
">. c #328966",
",. c #348964",
"<. c #348A64",
"1. c #348B64",
"2. c #358B64",
"3. c #358C64",
"4. c #358D64",
"5. c #368C64",
"6. c #368D64",
"7. c #398860",
"8. c #388960",
"9. c #388861",
"0. c #3A8C60",
"q. c #398E60",
"w. c #398E61",
"e. c #3B8F60",
"r. c #3A8E61",
"t. c #3A8F61",
"y. c #3B8F61",
"u. c #388D62",
"i. c #388E62",
"p. c #398E62",
"a. c #3A8E62",
"s. c #3C8F60",
"d. c #3D8F60",
"f. c #5B974D",
"g. c #5A984E",
"h. c #5B9B4F",
"j. c #5D994C",
"k. c #5E9A4C",
"l. c #5A9C4F",
"z. c #5B9C4F",
"x. c #5D9D4D",
"c. c #5E9D4D",
"v. c #5F9E4C",
"b. c #5F9E4D",
"n. c #5C9C4E",
"m. c #5D9C4E",
"M. c #5C9D4E",
"N. c #5D9D4E",
"B. c #418155",
"V. c #428356",
"C. c #4A8C55",
"Z. c #438A59",
"A. c #40885B",
"S. c #448F5A",
"D. c #4E9355",
"F. c #4E9455",
"G. c #4F9754",
"H. c #4C9557",
"J. c #4D9656",
"K. c #4C9657",
"L. c #4E9656",
"P. c #4E9756",
"I. c #4F9756",
"U. c #45935A",
"Y. c #45935B",
"T. c #47935A",
"R. c #479459",
"E. c #41915D",
"W. c #42915C",
"Q. c #42915D",
"!. c #40915E",
"~. c #41915E",
"^. c #44925C",
"/. c #48935A",
"(. c #499558",
"). c #489459",
"_. c #499559",
"`. c #4A9558",
"'. c #4B9558",
"]. c #4C9558",
"[. c #529352",
"{. c #519453",
"}. c #529553",
"|. c #559550",
" X c #519755",
".X c #529853",
"XX c #579A51",
"oX c #549952",
"OX c #559952",
"+X c #549953",
"@X c #559A52",
"#X c #559A53",
"$X c #519855",
"%X c #529854",
"&X c #539854",
"*X c #509856",
"=X c #589850",
"-X c #589B50",
";X c #599B50",
":X c #689F47",
">X c #609E4B",
",X c #619E4B",
"<X c #619F4B",
"1X c #629F4A",
"2X c #639F4A",
"3X c #629E4B",
"4X c #629F4B",
"5X c #669D48",
"6X c #659E48",
"7X c #649E49",
"8X c #649F4A",
"9X c #609E4D",
"0X c #6FA543",
"qX c #6BA245",
"wX c #69A046",
"eX c #68A147",
"rX c #69A147",
"tX c #69A247",
"yX c #6AA246",
"uX c #6BA246",
"iX c #6AA247",
"pX c #6CA345",
"aX c #6DA445",
"sX c #65A049",
"dX c #66A148",
"fX c #67A148",
"gX c #66A049",
"hX c #64A04A",
/* pixels */
"O.O.O.O.O.O.O.O.O.O.O.O.O.O.O.A  X_.O.O.5.5.5.O.O.O.O.O.O.O.O.O.",
"O.O.O.O.O.O.O.O.5.5.5.A ^.O.O.~.x.eXK.O.5.5.O.O.O.O.O.O.O.O.O.O.",
"O.O.O.O.O.O.~.K.~.2.N h.z.O.O.O.~.z.%X2.K Y 5.O.5.Y ^ I O.O.O.O.",
"O.O.O.O.5.O._.dX3X~.L.yXL.O.O.O.O.O.O.Y - / Y 2.Y c / d $.O.O.O.",
"O.O.O.O.O.O.O._.x.K.U.L.O.O.O.O.O.O.5.h : {.n K v :XeX5 Y O.O.O.",
"O.O.O.O.O.O.O.O.O.O.O.O.O.O.O.O.O.2._ z O 2.L.4 f.yXh.% K O.O.O.",
"O.5.O.O.O.O.A R.N O.O.O.O.O.O.O.O.Y q |. Xr 2 # n +Xo ; Y O.O.O.",
"O.A U.N O.A z.eXL.O.O.O.O.O.O.O.O.$.d r 5._ % % <.<.- 9 $.O.O.O.",
"O. XyX-XN _.<XL.O.O.O.O.O.O.O.O.O.O.O.O.O.O.2.O.O.O.O.O.O.~.U.u.",
"O.u. X3X_.u.u.O.O.O.O.O.O.O.O.O.O.O.O.O.O.O.O.O.O.O.O.O.U.6XdX~.",
"O.O.u.u.O.O.O.O.O.O.O.O.O.O.O.O.O.O.O.O.O.O.O.O.O.O.O.u.h.<X~.O.",
"O.O.O.O.O.O.O.O.O.O.O.O.O.O.O.O.O.O.O.O.O.O.O.O.O.O.O.O.u.u.O.O.",
"O.O.O.O.O.O.O.O.O.O.O.O.O.O.O.O.O.O.O.O.O.O.O.O.O.O.O.O.O.O.O.O.",
"O.O.O.O.O.O.O.O.O.O.O.O.O.O.O.O.O.O.O.O.O.O.O.O.O.O.O.O.O.O.O.O.",
"O.O.O.O.O.O.O.O.O.O.O.O.O.O.O.O.O.O.O.O.O.O.O.O.O.O.O.O.O.O.O.O.",
"O.O.O.O.O.O.O.O.O.O.O.O.O.O.O.O.O.O.O.O.O.O.O.O.O.O.O.O.O.O.O.O.",
"O.O.O.O.O.O.5.O.O.O.O.O.O.O.O.O.O.O.O.O.O.O.O.O.O.O.O.O.O.O.O.O.",
"O.O.O.O.O.u.e.5.O.O.O.O.O.O.O.5.O.O.O.O.O.O.O.O.O.O.O.O.O.O.O.O.",
"O.O.O.O.u.XXL.5.O.O.O.O.O.5.$.2.O.O.O.O.O.O.O.O.O.O.O.O.O.O.O.O.",
"O.e.O.O.+XuX%X5.2.2.$.2.O.Y q t <.O.O.O.O.O.O.O.O.O.O.O.V u.O.O.",
"O.XXK.O.XX%Xu.5.K 9 9 r K n 6X{.r 2.O.O.O.O.u.O.O.O.O.A z.~.O.O.",
"O.h.yX_.s.u.5.^ n j.L.2 . 6XyX6XC.9 2.O.O.O.u.u.u.O.e.v.eXA u.e.",
"O.u.z.L.5.O.O.^ 9 )  XV.X x.n   + % 2.O.O.N x.dX<X~.u.<XR.N x.hX",
"O.O.A u.O.5.5.$.Y $.u.0.) N <.Y K ( O.O.O.O._.yXpXv.d.A u.h.eXL.",
"O.u.2.2.2.2.K h p S O.O.O.O.u.u.u.O.O.O.O.O.O.~.~.W.O.O.O.~.~.u.",
"O.O.S 9 d i v j.O > O.O.O._.hX6XXXO.O.O.O.O.O.O.O.O.O.O.O.O.O.O.",
"O.r Z.f.^.> V.h.4 - O.O.U.dX0X<X~.O.O.O.O.O.O.O.O.O.O.O.O.O.O.O.",
"O.r 9 M #XX 4 k ; 9 O.O.s.U.^.~.O.O.O.O.O.O.O.O.O.O.O.O.O.O.O.O.",
"u.$._ $.A 0._ _ K $.O.O.O.O.O.O.O.O.O.O.O.O.O.O.O.O.O.O.O.O.O.O.",
"5.5.5.O.5.5.5.u.O.O.O.O.O.O.O.O.O.O.O.O.O.O.O.O.O.O.O.O.O.O.O.O.",
"#.O.O.O.O.O.5.O.O.O.O.O.O.O.O.O.O.O.O.O.O.O.O.O.O.O.O.O.O.O.O.O.",
"O.O.O.O.O.O.O.O.O.O.O.O.O.O.O.O.O.O.O.O.O.O.O.O.O.O.O.O.O.O.O.O."
};
