/* XPM */
static char *player_resized[] = {
/* columns rows colors chars-per-pixel */
"23 32 144 2 ",
"   c #2C3739",
".  c #303C3E",
"X  c #7C2737",
"o  c #7E2838",
"O  c #742A3C",
"+  c #583A4A",
"@  c #6E2F40",
"#  c #6B3142",
"$  c #6B3E4D",
"%  c #783140",
"&  c #374245",
"*  c #394547",
"=  c #3D494B",
"-  c #404749",
";  c #424C4E",
":  c #414E51",
">  c #544050",
",  c #455254",
"<  c #4A5659",
"1  c #4D5A5C",
"2  c #525D5F",
"3  c #7F4653",
"4  c #724F5E",
"5  c #505E61",
"6  c #6C5E6A",
"7  c #745B69",
"8  c #446265",
"9  c #556264",
"0  c #5C6667",
"q  c #596668",
"w  c #5D6A6C",
"e  c #606263",
"r  c #656768",
"t  c #616B6D",
"y  c #6D6C6D",
"u  c #766D6D",
"i  c #616F72",
"p  c #657375",
"a  c #687476",
"s  c #677678",
"d  c #697779",
"f  c #6B797B",
"g  c #727273",
"h  c #7B7372",
"j  c #707778",
"k  c #7C7579",
"l  c #737C7D",
"z  c #7A7A7B",
"x  c #8E1F2E",
"c  c #812333",
"v  c #B24F59",
"b  c #BD545D",
"n  c #81616E",
"m  c #8B676D",
"M  c #946A6E",
"N  c #817574",
"B  c #B3777F",
"V  c #86807F",
"C  c #8B807F",
"Z  c #90807F",
"A  c #667B82",
"S  c #6B7D82",
"D  c #707E80",
"F  c #7F7E81",
"G  c #837F80",
"H  c #5D878F",
"J  c #6F8085",
"K  c #62828B",
"L  c #6D838C",
"P  c #758284",
"I  c #788587",
"U  c #75858C",
"Y  c #7A8689",
"T  c #7C8A8B",
"R  c #7BA4AB",
"E  c #838486",
"W  c #8E8381",
"Q  c #83828A",
"!  c #8E828B",
"~  c #808E8F",
"^  c #918381",
"/  c #978987",
"(  c #928E8F",
")  c #9B8C8A",
"_  c #818F91",
"`  c #888C92",
"'  c #849294",
"]  c #899799",
"[  c #83989E",
"{  c #8C9A9B",
"}  c #82939A",
"|  c #9C9495",
" . c #96969D",
".. c #A08F8D",
"X. c #A0918F",
"o. c #A59593",
"O. c #AC9693",
"+. c #AC9896",
"@. c #A6999C",
"#. c #AA9A99",
"$. c #B19793",
"%. c #B19894",
"&. c #B59D9A",
"*. c #BDA29F",
"=. c #809BA5",
"-. c #8E9FA4",
";. c #92A1A4",
":. c #90A5AA",
">. c #9BABAE",
",. c #80ABB1",
"<. c #99ACB1",
"1. c #98AFB8",
"2. c #A5A4A4",
"3. c #AAA4AB",
"4. c #B8A8A6",
"5. c #B6A7A9",
"6. c #BDAAA8",
"7. c #C29998",
"8. c #C1A5A1",
"9. c #C5A8A3",
"0. c #C5ADAB",
"q. c #CFADAA",
"w. c #D6B0AD",
"e. c #D5B5B1",
"r. c #DCB9B4",
"t. c #E4BCB6",
"y. c #E6BFB9",
"u. c #DFC0BB",
"i. c #E1C0BB",
"p. c #EAC4BE",
"a. c #9DB9C1",
"s. c #A3BDC5",
"d. c #ABBEC3",
"f. c #B1BEC2",
"g. c #A8C6CD",
"h. c #B2C3C5",
"j. c #AFCAD1",
"k. c #EBC7C3",
"l. c #F4C6C0",
"z. c #F5CBC5",
"x. c #FACEC7",
"c. c #F7CEC8",
"v. c #F9D0CB",
"b. c None",
/* pixels */
"b.b.b.b.b.b.b.b.b.b.b.b.b.b.b.b.b.b.b.b.b.b.b.",
"b.b.b.b.b.b.b.b.b.b.b.b.  b.b.b.b.b.b.b.b.b.b.",
"b.b.b.b.b.b.b.b.b.b.b.b.. = = b.b.b.b.b.b.b.b.",
"b.b.b.b.b.b.< 1 5 , , = < 1 p 1 b.b.b.b.b.b.b.",
"b.b.b.& = 9 f f T I s q s T P D 9 b.b.b.b.b.b.",
"b.b.b.b.= s p T _ T i P T _ T l I 9 b.b.b.b.b.",
"b.b.b.. a D d s _ D a T ' ' _ _ d a 1 b.b.b.b.",
"b.b.b.9 _ p f s I p q _ ' T ~ T q D T 2 b.b.b.",
"b.b.1 ' T i T w a i P { T T ] T q T ] f b.b.b.",
"b.b.d ] ' I _ a i q I ' P ' ] _ w T ] ~ 9 b.b.",
"b.: w ] ] ] _ p w 5 f P l P ] ] a I ] P p b.b.",
"b.= q ] { { _ 9 w T a a C l I T ] _ ] p 1 , b.",
"b.b.q ' ] { p y z ' z O.t.z z g ' { { I b.: b.",
"b.b.b.d I d 0 9.E D *.p.$.r h $.j ] I t b.b.b.",
"b.b.b.< i e a h t ..e.O.Z u - N V P ^ h b.b.b.",
"b.b.b.b.1 p 2 e C i./ ..N 2 8 2.) g +.) b.b.b.",
"b.b.b.b.: ;.<.< 9.x.t.o.3.h.l G *.8.q.X.b.b.b.",
"b.b.b.b.b.` 2.| y.z.z.y.5.o.O.y.z.x.r.h b.b.b.",
"b.b.b.b.5 +.p.l.z.z.p.q.&.w.z.0.X.#.h b.b.b.b.",
"b.b.b.' D E k.c.v.e.M b v m F i b.b.b.b.b.b.b.",
"b.b.b.b.S b.b.| 6.@.m G @.f.S b.b.b.b.b.b.b.b.",
"b.b.b.b.b.b.b.F f -.S ! >.d.:.S b.b.b.b.b.b.b.",
"b.b.b.b.b.b.b.@.G <.U S =.Y S p b.b.b.b.b.b.b.",
"b.b.b.b.b.b.b.b.k } R H K 5.0.b.b.b.b.b.b.b.b.",
"b.b.b.b.b.b.b.Y  .R ,.L [ ` Q b.b.b.b.b.b.b.b.",
"b.b.b.b.b.b.b.1.j.g.s.3 x % b.b.b.b.b.b.b.b.b.",
"b.b.b.b.b.b.b.=.s.Q 7 O c c b.b.b.b.b.b.b.b.b.",
"b.b.b.b.b.b.b.b.b.# c b.+ X > b.b.b.b.b.b.b.b.",
"b.b.b.b.b.b.b.b.b.# O b.b.# $ b.b.b.b.b.b.b.b.",
"b.b.b.b.b.b.b.b.b.n 4 b.b.6 ! b.b.b.b.b.b.b.b.",
"b.b.b.b.b.b.b.b.b.3. .b.b.b.U b.b.b.b.b.b.b.b.",
"b.b.b.b.b.b.b.b.b.b.b.b.b.b.b.b.b.b.b.b.b.b.b."
};
