/* XPM */
static char *player_new[] = {
/* columns rows colors chars-per-pixel */
"32 32 204 2 ",
"   c #2C3739",
".  c #303C3E",
"X  c #7C2737",
"o  c #742A3C",
"O  c #583A4A",
"+  c #6B3142",
"@  c #6B3E4D",
"#  c #783140",
"$  c #374245",
"%  c #3D494B",
"&  c #347459",
"*  c #35785A",
"=  c #387B5A",
"-  c #1D6965",
";  c #1F6F66",
":  c #186768",
">  c #216E64",
",  c #277566",
"<  c #2B7661",
"1  c #287562",
"2  c #267A67",
"3  c #287E67",
"4  c #20776A",
"5  c #237868",
"6  c #237A69",
"7  c #277B68",
"8  c #307D61",
"9  c #404749",
"0  c #414E51",
"q  c #544050",
"w  c #455254",
"e  c #4A5659",
"r  c #4D5A5C",
"t  c #525D5F",
"y  c #7F4653",
"u  c #724F5E",
"i  c #505E61",
"p  c #6C5E6A",
"a  c #745B69",
"s  c #446265",
"d  c #556264",
"f  c #5C6667",
"g  c #596668",
"h  c #5D6A6C",
"j  c #606263",
"k  c #656768",
"l  c #616B6D",
"z  c #6D6C6D",
"x  c #766D6D",
"c  c #616F72",
"v  c #657375",
"b  c #687476",
"n  c #677678",
"m  c #697779",
"M  c #6B797B",
"N  c #727273",
"B  c #7B7372",
"V  c #707778",
"C  c #7C7579",
"Z  c #737C7D",
"A  c #7A7A7B",
"S  c #8E1F2E",
"D  c #812333",
"F  c #B24F59",
"G  c #BD545D",
"H  c #81616E",
"J  c #8B676D",
"K  c #946A6E",
"L  c #817574",
"P  c #37845E",
"I  c #3D875B",
"U  c #39855E",
"Y  c #3D8B5D",
"T  c #3E8F5E",
"R  c #3D905F",
"E  c #3E905F",
"W  c #298067",
"Q  c #2F8364",
"!  c #2C8367",
"~  c #2E8565",
"^  c #2A8168",
"/  c #348160",
"(  c #358562",
")  c #308464",
"_  c #368D63",
"`  c #368E63",
"'  c #318865",
"]  c #348A64",
"[  c #358B64",
"{  c #368C64",
"}  c #3A8C60",
"|  c #3B8F60",
" . c #388D62",
".. c #3C8F60",
"X. c #3D8F60",
"o. c #5B974D",
"O. c #5B9B4F",
"+. c #5D994C",
"@. c #5B9C4F",
"#. c #5D9D4D",
"$. c #5F9E4C",
"%. c #428356",
"&. c #438A59",
"*. c #4C9657",
"=. c #4E9656",
"-. c #45935A",
";. c #479459",
":. c #42915C",
">. c #41915E",
",. c #44925C",
"<. c #499559",
"1. c #519755",
"2. c #579A51",
"3. c #549953",
"4. c #559A53",
"5. c #529854",
"6. c #589B50",
"7. c #689F47",
"8. c #619F4B",
"9. c #629E4B",
"0. c #659E48",
"q. c #68A147",
"w. c #6AA246",
"e. c #6BA246",
"r. c #6CA345",
"t. c #66A148",
"y. c #64A04A",
"u. c #86807F",
"i. c #8B807F",
"p. c #90807F",
"a. c #6B7D82",
"s. c #707E80",
"d. c #7F7E81",
"f. c #837F80",
"g. c #5D878F",
"h. c #62828B",
"j. c #6D838C",
"k. c #758284",
"l. c #788587",
"z. c #75858C",
"x. c #7A8689",
"c. c #7C8A8B",
"v. c #7BA4AB",
"b. c #838486",
"n. c #83828A",
"m. c #8E828B",
"M. c #808E8F",
"N. c #918381",
"B. c #978987",
"V. c #9B8C8A",
"C. c #818F91",
"Z. c #888C92",
"A. c #849294",
"S. c #82939A",
"D. c #899799",
"F. c #83989E",
"G. c #8C9A9B",
"H. c #9C9495",
"J. c #96969D",
"K. c #A08F8D",
"L. c #A0918F",
"P. c #A59593",
"I. c #AC9693",
"U. c #AC9896",
"Y. c #A6999C",
"T. c #AA9A99",
"R. c #B19793",
"E. c #B59D9A",
"W. c #BDA29F",
"Q. c #809BA5",
"!. c #8E9FA4",
"~. c #92A1A4",
"^. c #90A5AA",
"/. c #9BABAE",
"(. c #80ABB1",
"). c #99ACB1",
"_. c #98AFB8",
"`. c #A5A4A4",
"'. c #AAA4AB",
"]. c #B6A7A9",
"[. c #BDAAA8",
"{. c #C1A5A1",
"}. c #C5A8A3",
"|. c #C5ADAB",
" X c #CFADAA",
".X c #D6B0AD",
"XX c #D5B5B1",
"oX c #DCB9B4",
"OX c #E4BCB6",
"+X c #E6BFB9",
"@X c #E1C0BB",
"#X c #EAC4BE",
"$X c #A3BDC5",
"%X c #ABBEC3",
"&X c #B1BEC2",
"*X c #A8C6CD",
"=X c #B2C3C5",
"-X c #AFCAD1",
";X c #EBC7C3",
":X c #F4C6C0",
">X c #F5CBC5",
",X c #FACEC7",
"<X c #F7CEC8",
"1X c #F9D0CB",
/* pixels */
"_ _ _ _ _ _ _ _ _ _ _ _ _ _ _ E 1.<. ._ { { { _ _ _ { _ _ _ _ _ ",
"_ _ _ _ _ _ _ _ _ ] _ T ,._ _ >.@.  *._ { { _ _ _ _ { { _ _ _ _ ",
"_ _ _ _ _ _ >.*.>.] T O.@._ _ _ >.. % % Q ~ { _ { ~ ^ Q _ _ _ _ ",
"_ _ _ _ { _ <.t.9.>.*.e r i w w % e r n r / ~ [ ~ P / 6 ' _ _ _ ",
"_ _ _ _ _ _ _ <.$ % d M M c.l.m g n c.k.Z d U Q I q.q.1 ~ _ _ _ ",
"_ _ _ _ _ _ _ _ { % n n c.C.c.c k.c.C.c.Z l.d < o.q.@.- ~ _ _ _ ",
"_ { _ _ _ _ E ;.. n Z m n C.s.b c.A.A.C.A.n v r U 3.* : ~ _ _ _ ",
"_ E -.T _ E @.q.g c.v M n l.v g M.A.c.M.c.g s.c.t ] ; 2 ' _ _ _ ",
"_ 1.q.@.T <.9.r A.c.c c.h b c k.G.c.c.D.c.g c.D.M _ _ _ _ >.-. .",
"_  .1.9.<. . .M D.A.l.M.b c g l.A.k.A.D.c.h c.D.M.d _ _ -.0.q.>.",
"_ _ _  ._ _ 0 h D.D.D.C.v h i M k.Z k.D.G.n l.G.k.v _  .O.9.>._ ",
"_ _ _ _ _ _ % g D.G.G.C.d h c.b M L Z l.c.D.M.D.v r w _ _ _ _ _ ",
"_ _ _ _ _ _ _ g A.D.G.v z A A.A R.OXA A N A.G.G.l._ 0 _ _ _ _ _ ",
"_ _ _ _ _ _ _ _ m l.b f }.b.s.W.;XR.k B R.V G.l.l _ _ _ _ _ _ _ ",
"_ _ _ _ _ _ _ _ e c f b B b L.XXI.p.x 9 L u.k.p.B _ _ _ _ _ _ _ ",
"_ _ _ _ _ _ _ _ _ r v t j L +XB.K.L t s `.V.N U.V._ _ _ _ _ _ _ ",
"_ _ _ _ _ { { _ _ 0 ~.).e }.,XOXP.'.=XZ L [.{. XP._ _ _ _ _ _ _ ",
"_ _ _ _ _  .R { _ ] Z.`.H.+X>X>X+X].P.I.+X>X,XoXB _ _ _ _ _ _ _ ",
"_ _ _ _  .3.*._ _ i U.#X#X,X>X#X XE..X>X|.L.T.B _ _ _ _ _ _ _ _ ",
"_ E _ _ 3.r.5.{ A.Z b.;X,X1XXXK G F J f.c _ _ _ _ _ _ _ T _ _ _ ",
"_ 3.*._ 3.3. .{ ~ a.7 3 H.[.Y.J f.Y.&Xa.[ {  ._ _ _ _ E O.>._ _ ",
"_ O.q.<.R  .{ ^ U +.*., f.m !.a.m./.%X~.a.{  ._ _ _ R $.q.E _ T ",
"_  .@.1.{ _ { ^ 7 ( 1.%.Y.b./.z.a.v.l.a.v T @.q.9.>._ 9.;.T @.t.",
"_ _ E  ._ { { ' ~ ) _ Y / C S.v.g.h.].|. .{ <.r.r.$.T E  .O.q.*.",
"_  .] ] _ ] Q 2 5 W _ _ x.J.v.(.z.F.Z.n._ _ _ >.>.:._ _ _ >.>._ ",
"_ _ 3 2 7 4 I +.= > _ _ _.-X*X$Xy S o _ _ _ _ _ _ _ _ _ _ _ _ _ ",
"_ 3 &.o.,.> %.O.< ; _ _ Q.$Xn.a o X D _ _ _ _ _ _ _ _ _ _ _ _ _ ",
"_ 3 2 T 3.& < 8 : 2 _ _ E ;.+ X _ O X q _ _ _ _ _ _ _ _ _ _ _ _ ",
" .' ) ' E  .) ) ~ ' _ _ _ _ + o _ _ + @ _ _ _ _ _ _ _ _ _ _ _ _ ",
"{ { { _ { {  . ._ _ _ _ _ _ H u _ _ p m._ _ _ _ _ _ _ _ _ _ _ _ ",
"_ _ _ _ _ _ [ _ _ _ _ _ _ _ '.J._ ` _ l._ _ _ _ _ _ _ _ _ _ _ _ ",
"_ _ _ _ _ _ _ _ _ _ _ _ _ _ _ _ _ { { { _ _ _ _ _ _ _ _ _ _ _ _ "
};
