/* XPM */
static char *wall[] = {
/* columns rows colors chars-per-pixel */
"32 32 248 2 ",
"   c #6D6B9F",
".  c #6E6DA0",
"X  c #6F6FA1",
"o  c #7072A1",
"O  c #7273A2",
"+  c #7272A3",
"@  c #7273A3",
"#  c #7274A2",
"$  c #7374A2",
"%  c #7375A2",
"&  c #7375A3",
"*  c #7476A3",
"=  c #7677A4",
"-  c #7677A5",
";  c #7576A6",
":  c #7079A5",
">  c #767AA4",
",  c #777BA4",
"<  c #7678A6",
"1  c #787CA5",
"2  c #797CA5",
"3  c #797EA5",
"4  c #797DA6",
"5  c #7A7DA6",
"6  c #7A7DA7",
"7  c #7A7EA6",
"8  c #7A7FA6",
"9  c #787BA8",
"0  c #7A80A6",
"q  c #7B81A6",
"w  c #7B80A7",
"e  c #7B82A6",
"r  c #7D82A7",
"t  c #7C83A7",
"y  c #7D84A7",
"u  c #7D81A8",
"i  c #7D83A8",
"p  c #7D83A9",
"a  c #7E82A9",
"s  c #7E84A8",
"d  c #7F84A9",
"f  c #7F85A9",
"g  c #7F86A9",
"h  c #7F87A9",
"j  c #8085A9",
"k  c #8086A9",
"l  c #8186A9",
"z  c #8087A9",
"x  c #8187A9",
"c  c #8186AA",
"v  c #8187AA",
"b  c #8287AB",
"n  c #8187AE",
"m  c #8188A9",
"M  c #8189A9",
"N  c #8188AA",
"B  c #8188AB",
"V  c #8288AA",
"C  c #8289AA",
"Z  c #8289AB",
"A  c #828AAA",
"S  c #838AAA",
"D  c #838BAA",
"F  c #828AAB",
"G  c #838AAB",
"H  c #838BAB",
"J  c #828DAA",
"K  c #838CAB",
"L  c #848CAA",
"P  c #848CAB",
"I  c #848DAB",
"U  c #858DAB",
"Y  c #848EAB",
"T  c #858EAB",
"R  c #848FAB",
"E  c #858FAB",
"W  c #838AAC",
"Q  c #848BAC",
"!  c #838CAC",
"~  c #848CAC",
"^  c #848DAC",
"/  c #848CAD",
"(  c #848DAD",
")  c #848EAC",
"_  c #858EAC",
"`  c #858FAC",
"'  c #868EAC",
"]  c #868FAC",
"[  c #868FAD",
"{  c #848CAE",
"}  c #858CAE",
"|  c #868EAE",
" . c #868FAF",
".. c #8490AB",
"X. c #8690AB",
"o. c #8691AB",
"O. c #8692AB",
"+. c #8794AB",
"@. c #8291AC",
"#. c #8590AC",
"$. c #8690AC",
"%. c #8691AC",
"&. c #8791AC",
"*. c #8690AD",
"=. c #8691AD",
"-. c #8692AC",
";. c #8792AC",
":. c #8693AC",
">. c #8793AC",
",. c #8792AD",
"<. c #8793AD",
"1. c #8790AE",
"2. c #8791AF",
"3. c #8794AC",
"4. c #8794AD",
"5. c #8893AC",
"6. c #8893AD",
"7. c #8894AC",
"8. c #8895AC",
"9. c #8894AD",
"0. c #8994AD",
"q. c #8895AD",
"w. c #8995AD",
"e. c #8896AC",
"r. c #8896AD",
"t. c #8996AD",
"y. c #8997AD",
"u. c #8A96AD",
"i. c #8A97AD",
"p. c #8894AE",
"a. c #8995AE",
"s. c #8996AE",
"d. c #8A97AE",
"f. c #8A98AD",
"g. c #8A99AD",
"h. c #8B99AD",
"j. c #8A9AAD",
"k. c #8B9AAD",
"l. c #8B9BAD",
"z. c #8A98AE",
"x. c #8B98AE",
"c. c #8A99AE",
"v. c #8B99AE",
"b. c #8B99AF",
"n. c #8B9AAE",
"m. c #8B9BAE",
"M. c #8B9AAF",
"N. c #8C9AAE",
"B. c #8C9BAE",
"V. c #8C9AAF",
"C. c #8C9BAF",
"Z. c #8C9CAE",
"A. c #8D9CAE",
"S. c #8C9DAE",
"D. c #8D9DAE",
"F. c #8C9CAF",
"G. c #8D9CAF",
"H. c #8D9DAF",
"J. c #8D9EAE",
"K. c #8D9EAF",
"L. c #8E9EAE",
"P. c #8E9EAF",
"I. c #8E9FAF",
"U. c #8790B1",
"Y. c #8892B0",
"T. c #8992B0",
"R. c #8993B0",
"E. c #8A95B0",
"W. c #8A95B1",
"Q. c #8A96B0",
"!. c #8C99B1",
"~. c #8D9CB0",
"^. c #8E9FB0",
"/. c #8F9DB3",
"(. c #8F9FB2",
"). c #8F9EB3",
"_. c #909EB4",
"`. c #8FA1AE",
"'. c #8EA0AF",
"]. c #8FA0AF",
"[. c #8EA1AF",
"{. c #8FA1AF",
"}. c #8FA2AF",
"|. c #90A2AF",
" X c #8FA0B0",
".X c #8FA1B0",
"XX c #8FA2B0",
"oX c #90A1B0",
"OX c #90A0B1",
"+X c #90A2B0",
"@X c #90A2B1",
"#X c #91A2B1",
"$X c #91A3B1",
"%X c #90A0B3",
"&X c #91A3B2",
"*X c #92A3B3",
"=X c #92A4B2",
"-X c #92A4B3",
";X c #92A5B3",
":X c #93A2B6",
">X c #93A5B4",
",X c #93A4B5",
"<X c #93A5B5",
"1X c #94A6B5",
"2X c #95A7B7",
"3X c #95A8B7",
"4X c #94A1BB",
"5X c #95A6B8",
"6X c #95A7B8",
"7X c #96A7B8",
"8X c #97A7BB",
"9X c #96A3BE",
"0X c #97A5BD",
"qX c #97A7BC",
"wX c #97A4BE",
"eX c #97A6BE",
"rX c #98A6BE",
"tX c #98A6BF",
"yX c #97A9B9",
"uX c #97A9BA",
"iX c #97A8BB",
"pX c #98AABA",
"aX c #99ABBB",
"sX c #99ABBC",
"dX c #9AABBE",
"fX c #9AACBD",
"gX c #9BADBE",
"hX c #9BADBF",
"jX c #98A6C0",
"kX c #9AA7C1",
"lX c #9BAAC2",
"zX c #9BACC0",
"xX c #9CADC1",
"cX c #9CAEC0",
"vX c #9DAEC1",
"bX c #9DAFC1",
"nX c #9DACC3",
"mX c #9DADC3",
"MX c #9DAEC2",
"NX c #9DAEC3",
"BX c #9FAEC6",
"VX c #9EB0C2",
"CX c #9FB1C3",
"ZX c #9FB0C5",
"AX c #A0B1C5",
"SX c #A1B2C5",
"DX c #A1B3C5",
"FX c #A0B0C6",
/* pixels */
"K.F F m.~. X=X>X1XAX_.* Y K.|.|.|.|.|.K. X|.K.Y x L L v $.|.|.|.",
"N.F v ! ) ~.xXZXxX_., . r Y N. XK.K.K.K. X X$.L v $.K. X$.e. XK.",
"K F F m.K.1.1.) > * r v v y. X$.L L L L N.|.K.K.$.e.|.|.$.L L Y ",
"m.K m.].].K.~.~.F $.K.N.Y N. XK.K.K.Y v e.|.|.|. XK. X$.y.K.N.K.",
"K.O.K.|.].].].].Q x. X XK.Y N.|.|. XK.O.e. X|.|.].6.L e. X|. X|.",
"].K.].|.].].].K.L L N. XK.Y m.|.|.].].K.O.f.|.|.|.O.6.K.|.|.|.].",
"].].K.K.*X].K.O.v v F F F F N.|.].].].].Y e.|.|.K.1.e.|.|.|.].|.",
"K.K.Y Y.hX*XO.y.Y y.Y v v v y.].|.|.|.K.3 F K.K.O.v e.|.].|.K.K.",
"Y F Q lX1X|.K.O.y.$.y.Y y.Y F N.K.K.K.r > v Y Y L v y.K.|.|.y.L ",
"m.F ) BX>X].|.K. XK.6.x.1.y.) L F F F j v v y.K.K.K.$.m.|.$.6.K.",
"*XN.) BX=X|.|.|.|. XN. XK.Y 9XU.v F F v v 6.].].|.|.K.K.e.F 6.|.",
"].~.) ~.*X|.K. X X|.|.|.*X) Q : @.dX:XY v N.|.].K.|.|.|.K.1.6.|.",
"K.Y F ) hX1X|.|.|. X].|.`.K.L r wXaX*XK.) wXuX].].].|.].|.K.e.$.",
"].K.K.K.1XxX*X|.K.|.].|.|.].Y v lX1X].K.) wXhX].|.|.].|.].|.$.F ",
"].].|.|.].y.~.K.|.].|.].].K.Y x ) K.].y.F !.VX3X].].].].|.|.e.O.",
"].=XgX*X].m.> y.|.|.].|.L.O.x x y.].].K.K.O.dXaX|.].|.].|.|.$.O.",
"].|.*Xr f.N.$ v K.|. XK.Y v v y.K.].].|.|.K.y.rX5XK.].].].].O.O.",
"].].K.f.K.m.* $. X|.Y Y F v v m.*X].].].].|.K.W.Q y.K.].].m.) F ",
"|.].K.K.l., X y.|.K.Y y.K.N.Y m.].|.|.].].].|.K.7 o y m.].aXBXrX",
"xXy.M * * 7 7 L K.|.K.K.|.|.K.O.L.].].|.|.].|.].7 r m.K.].=X1XaX",
"5XrX*   > v L y.K.|.|.K.].].].K.O.m.K.].].|.|.6.O.K.|.|.|.].].=X",
"*X_.o 7 x F x. X|.|.|.|.*X|.].|.N.O.Y m.].].].Y m.|.].].].].].].",
"|.N.$ a x v L.].|.].|.AXAX1X].].].Y y.].].y.K v 4XuX|.|.].|.|.].",
"].N.j v x M l.|.].|.|.AXuXO.N.|.].Y y.].|.K.Y v ~.hXSXaX|.|.].|.",
"K.Y v v v v N.|.|.|.K.W.7 o O.|._.) L x.K._.) v F ) _.hXAX5XK.K.",
"K.Y e.Y y.L Y K.|.K.K.K.y.O.K.|.|.) v L Y Q Q v 6.N.K.N.b - & w ",
"Y y.1.N. XN.N. XK.6.Y N.K.y.N.].].N.N.L $.K.) 6._.].|.K.y.> o Y ",
"y.1.m.].|.|.|.|.|.N.L L 1.wX1X].|.$.L F y.|.) y.|.|.].|.|.r - F ",
"O.f.].].|.|.|.].].].N.Y wXaX|.].|.Y v v L L L y.].|.|.|.|.r > ) ",
"l.].|.|.K.|.].|.|.].].Y nX3X].|.|.K.N.Y v 6.x.6.m.].|.K.].Y s F ",
"K.|.|.`.].|.|.].].|.*XY ~.=X].].].].|.K.N.K.|.$.F y.K.y.Y y.N.1.",
"O.K.].|.`.].|.].|.|.dXY.m.|.|.].|.|.].].|.|.|.Y v F Y F O.K.|.K."
};
