/* XPM */
static char *wall_resized[] = {
/* columns rows colors chars-per-pixel */
"32 21 136 2 ",
"   c #1F2B36",
".  c #222E39",
"X  c #232F3A",
"o  c #242F3B",
"O  c #24303C",
"+  c #25303C",
"@  c #25313C",
"#  c #25313D",
"$  c #26313D",
"%  c #26313E",
"&  c #26323E",
"*  c #27323E",
"=  c #27333F",
"-  c #283440",
";  c #293440",
":  c #283441",
">  c #293441",
",  c #293541",
"<  c #293542",
"1  c #2A3642",
"2  c #2A3643",
"3  c #2B3743",
"4  c #2B3744",
"5  c #2C3744",
"6  c #2C3845",
"7  c #2D3945",
"8  c #2D3946",
"9  c #2E3A47",
"0  c #2E3B47",
"q  c #2F3B47",
"w  c #2E3A48",
"e  c #2F3B48",
"r  c #2F3B49",
"t  c #2F3C49",
"y  c #303C48",
"u  c #303C49",
"i  c #303C4A",
"p  c #313C4A",
"a  c #303D4A",
"s  c #313D4A",
"d  c #313D4B",
"f  c #313E4B",
"g  c #323E4B",
"h  c #333E4B",
"j  c #323E4C",
"k  c #323F4C",
"l  c #333F4C",
"z  c #333F4D",
"x  c #36404A",
"c  c #33404D",
"v  c #34404D",
"b  c #37414D",
"n  c #34404E",
"m  c #34414E",
"M  c #35414E",
"N  c #34414F",
"B  c #35414F",
"V  c #35424F",
"C  c #36424F",
"Z  c #38424E",
"A  c #354150",
"S  c #354250",
"D  c #364250",
"F  c #364350",
"G  c #364251",
"H  c #364351",
"J  c #374351",
"K  c #374352",
"L  c #374451",
"P  c #374452",
"I  c #384452",
"U  c #384453",
"Y  c #384553",
"T  c #394553",
"R  c #394653",
"E  c #394554",
"W  c #394654",
"Q  c #3A4654",
"!  c #3A4655",
"~  c #3A4755",
"^  c #3B4755",
"/  c #3A4756",
"(  c #3B4756",
")  c #3B4757",
"_  c #3B4856",
"`  c #3B4857",
"'  c #3F4955",
"]  c #3D4956",
"[  c #3C4857",
"{  c #3C4957",
"}  c #3D4957",
"|  c #3C4858",
" . c #3C4958",
".. c #3D4958",
"X. c #3D4959",
"o. c #3D4A58",
"O. c #3D4A59",
"+. c #3E4A59",
"@. c #3E4B59",
"#. c #3E4A5A",
"$. c #3E4B5A",
"%. c #3F4B5A",
"&. c #3F4B5B",
"*. c #3F4C5A",
"=. c #3F4C5B",
"-. c #3F4C5C",
";. c #404C5B",
":. c #444E59",
">. c #404C5C",
",. c #404D5C",
"<. c #414D5C",
"1. c #414D5D",
"2. c #414E5D",
"3. c #414E5E",
"4. c #424F5E",
"5. c #434F5E",
"6. c #424F5F",
"7. c #43505F",
"8. c #46505C",
"9. c #44505F",
"0. c #48525E",
"q. c #48525F",
"w. c #435060",
"e. c #445060",
"r. c #445160",
"t. c #455160",
"y. c #445161",
"u. c #455260",
"i. c #445261",
"p. c #455261",
"a. c #465363",
"s. c #475463",
"d. c #475464",
"f. c #485565",
"g. c #495666",
"h. c #4A5767",
/* pixels */
"F d.f.=.=.@.k ( y.@.@.@.d.d.| 7.| r i.=.7.P 7.h.i.=.-.P n 7.d.d.",
"@ d ( _ _ Y k k U k k 4 k @.U | n k P n F 8 r n =.P _ n 2 6 V =.",
"d ( Y V P ( @.@ @ ( | ( F ( r | P _ . 2 =.U =.n U d _ _ R _ n =.",
"Y 6.=.Y @ @ Y V F P _ -.&.y.r @ 6 U n c | P 7.| -.; * n _ y._ 7.",
"8 ( _ ( P F Y P @.( U F F =.F U n P _ _ @.n _ n =.P P P n _ P =.",
"n @.@.r 6.Y @.Y @.6._ ( @.( n 6.U _ _ =.-.P _ =.V _ _ _ _ =._ P ",
"k ( r r @.F ( 2 k | @.U P 8 k @.F P 4 P -._ _ n 0 _ P P P _ n 0 ",
"k -.@.n @ k @.k F n ( ( @.=.4 @ U | n n _ n =._ _ O 6 =._ _ _ 7.",
"  @ r F d 8 @.( 6.@.( . @ F k r n _ =.=.7.0 O 2 P r 6 ( 0 O * =.",
"6 F F ( &.( &.F -.( @.k k ( ( -._ ] P _ =.V n n _ @._ =.P n n =.",
"k @.U ( @.F ( ( F F _ ( ( ( ( @.P P _ c _ P _ Y _ @._ P _ o.n _ ",
"r @.8 ( 6.@.( F 4 F 6.F Y r @.6._ =.n 4 =._ _ n V =.7.P _ r 2 _ ",
"k | 8 d F Y @.@.@.4 6 ( F r r ( n -.| _ * r =.r r r _ P 7._ _ | ",
"V &.( 6.@.V @ 2 F 6 2 k | &.@.6.4 ; 6 P 2 4 _ ( 7._ =.* ; c n _ ",
"8.t.F 6.@.( 8 8 @.( &.@.| ( @.6.n r r =.=._ =.P -.o.7.0 0 P _ 7.",
":.] ( F Y ( Y ( ( n P F P ( F ( P P R P P V P P R P _ P P P _ _ ",
"] 7.d.=._ ( 8 _ -._ P P 7.d._ =.n 6 i._ =.n _ y.y._ _ r 6 =.7.y.",
"x d S P =.] _ r n n n 4 8 _ P -._ R 0 c P 6 6 n _ U =._ r 0 n _ ",
"0.7.( d 6 r _ * O P =.-._ _ 4 r r P O ; | _ 7.P _ 2 r P _ 7.P o.",
"q.q.=._ 4 2 _ P _ =._ =.| 7.r 2 r _ o.P 7._ -._ -.4 2 P _ 7._ d.",
"V Z P Y P V n n _ V n d c _ n ( n n P P P 0 n n _ P P n 0 V n | "
};
